<svg 
  xmlns="http://www.w3.org/2000/svg" 
  xmlns:xlink="http://www.w3.org/1999/xlink" 
  viewBox="-43 -43 640 640"
  id="drone"
  xml:space="preserve">
  <g class="propeller-group">
    <path fill = "#FFFFFF" d=" M 461.563 418.77 L 463.992 416.34 Q 465.495 407.116 466.461 400.395 C 467.426 393.675 469.363 388.087 474.731 383.284 Q 533.862 341.514 538.196 338.859 C 542.529 336.203 548.345 334.299 551.492 338.29 C 554.639 342.282 553.481 346.02 549.419 350.082 L 471.147 428.354 L 461.563 418.77 Z  M 427.729 471.772 L 425.299 474.202 Q 423.797 483.426 422.831 490.146 C 421.866 496.867 419.929 502.454 414.561 507.257 Q 355.43 549.028 351.096 551.683 C 346.763 554.338 340.947 556.243 337.8 552.251 C 334.653 548.26 335.811 544.522 339.873 540.46 L 418.145 462.187 L 427.729 471.772 Z "/>
  </g>
</svg>